<?xml version="1.0" encoding="UTF-8"?>
<svg data-bbox="0 0 33.615 33.609" height="33.615" width="33.614" xmlns="http://www.w3.org/2000/svg" data-type="shape">
    <g>
        <path fill-opacity=".85" d="M16.805 33.609c9.216 0 16.81-7.599 16.81-16.805C33.614 7.589 26.01 0 16.792 0 7.594 0 0 7.588 0 16.805c0 9.205 7.604 16.804 16.805 16.804Zm0-3.692A13.064 13.064 0 0 1 3.703 16.804a13.054 13.054 0 0 1 13.09-13.112c7.273 0 13.129 5.84 13.129 13.113a13.077 13.077 0 0 1-13.117 13.112Zm8.332-13.118c0-.503-.18-.894-.58-1.278l-5.476-5.35c-.302-.292-.633-.42-1.064-.42-.798 0-1.385.597-1.385 1.421 0 .421.186.798.457 1.06l1.876 1.783 1.755 1.356-3.246-.165H9.949c-.883 0-1.526.679-1.526 1.593 0 .903.643 1.581 1.526 1.581h7.525l3.246-.153-1.73 1.35-1.901 1.788a1.364 1.364 0 0 0-.457 1.049c0 .83.587 1.438 1.385 1.438.431 0 .762-.145 1.064-.436l5.477-5.34c.388-.361.58-.774.58-1.277Z"/>
    </g>
</svg>
