<?xml version="1.0" encoding="UTF-8"?>
<!--Generator: Apple Native CoreSVG 175.5-->
<!DOCTYPE svg
PUBLIC "-//W3C//DTD SVG 1.1//EN"
       "http://www.w3.org/Graphics/SVG/1.1/DTD/svg11.dtd">
<svg version="1.1" xmlns="http://www.w3.org/2000/svg" xmlns:xlink="http://www.w3.org/1999/xlink" width="16.2787" height="9.81915">
 <g>
  <rect height="9.81915" opacity="0" width="16.2787" x="0" y="0"/>
  <path d="M8.14121 9.81915C8.33994 9.81915 8.52959 9.73057 8.66836 9.57832L16.0726 1.77969C16.1992 1.64698 16.2787 1.49268 16.2787 1.30606C16.2787 0.925393 15.9887 0.628615 15.605 0.628615C15.4244 0.628615 15.2513 0.699025 15.1246 0.818948L7.71074 8.61377L8.571 8.61377L1.15108 0.818948C1.03418 0.699025 0.861037 0.628615 0.670705 0.628615C0.29004 0.628615 0 0.925393 0 1.30606C0 1.49268 0.0825197 1.65303 0.20918 1.78946L7.60733 9.58135C7.75957 9.7336 7.93272 9.81915 8.14121 9.81915Z" fill="#000000" fill-opacity="0.85"/>
 </g>
</svg>
