<?xml version="1.0" encoding="UTF-8"?>
<svg id="Layer_1" data-name="Layer 1" xmlns="http://www.w3.org/2000/svg" viewBox="0 0 64 64">
  <defs>
    <style>
      .cls-1 {
        fill: #1d1d1b;
        stroke-width: 0px;
      }
    </style>
  </defs>
  <path class="cls-1" d="m24.26,55.75c-1.23-.65-2.43-1.33-3.6-2.08-1.21-.77-2.37-1.6-3.47-2.51-.51-.42-1.02-.86-1.51-1.32-.45-.41-.88-.83-1.3-1.27-1.23-1.29-2.32-2.68-3.19-4.24-.56-1-1.01-2.05-1.29-3.16-.11-.45-.19-.9-.24-1.35-.06-.55-.08-1.1-.05-1.66.04-.7.15-1.39.34-2.07.45-1.65,1.23-3.13,2.28-4.48.48-.61,1.03-1.16,1.64-1.65.05-.04.09-.08.15-.13-.04-.07-.08-.13-.13-.2-.61-.91-1.23-1.82-1.84-2.73-.82-1.21-1.63-2.42-2.45-3.63-.5-.74-1-1.48-1.51-2.23-.3-.45-.61-.9-.92-1.35-.28-.41-.49-.86-.54-1.35-.1-.86.12-1.64.68-2.31.26-.3.58-.53.89-.77,1.31-1.05,2.65-2.05,4.03-3.01.75-.52,1.51-1.04,2.27-1.55,1.24-.82,2.51-1.59,3.81-2.29,1.22-.66,2.48-1.27,3.77-1.78,1.23-.49,2.49-.89,3.79-1.16.56-.12,1.13-.21,1.7-.27.56-.06,1.11-.09,1.67-.09.89,0,1.77.09,2.64.3.07.02.15.02.21,0,.59-.14,1.19-.23,1.8-.27.6-.04,1.19-.04,1.78-.01.8.04,1.59.16,2.37.32,1.7.35,3.33.92,4.92,1.62.75.33,1.48.69,2.21,1.07,1.14.6,2.25,1.24,3.33,1.93.56.36,1.12.71,1.66,1.09,1.01.7,2.02,1.41,3.02,2.12.99.71,1.96,1.46,2.91,2.22.29.23.56.47.77.78.27.39.43.82.49,1.29.09.74-.07,1.41-.49,2.03-.75,1.11-1.49,2.21-2.24,3.32-.52.77-1.04,1.54-1.56,2.32-.78,1.16-1.56,2.32-2.35,3.47-.22.33-.44.65-.66.98-.03.04-.06.09-.09.14.15.12.29.24.43.36.7.6,1.3,1.28,1.82,2.03.38.55.72,1.12,1.02,1.72.45.9.78,1.85.97,2.84.1.51.17,1.02.17,1.54,0,.13.02.26.02.39,0,.85-.11,1.7-.32,2.53-.26,1.01-.66,1.97-1.15,2.89-.66,1.24-1.47,2.36-2.38,3.42-.51.6-1.05,1.17-1.62,1.71-.95.92-1.95,1.77-3,2.58-1,.77-2.02,1.49-3.08,2.18-1.31.85-2.64,1.67-4.02,2.41-.6.32-1.2.64-1.8.94-.92.45-1.85.87-2.83,1.19-.38.12-.76.23-1.16.28-.32.05-.64.02-.95-.03-.86-.15-1.69-.42-2.52-.71-.93-.33-1.83-.7-2.73-1.1-.87-.39-1.74-.8-2.59-1.26m3.54-34.2c.11.71.31,1.4.58,2.07.31.77.72,1.49,1.19,2.17.33.49.69.95,1.09,1.39.21.24.43.47.66.7.2.21.41.41.62.61.02.02.05.04.09.07.32-.33.64-.65.95-.97.38-.39.72-.81,1.05-1.24.84-1.1,1.51-2.3,1.9-3.63.22-.74.33-1.5.36-2.27,0-.14-.02-.29-.02-.43,0-.41-.06-.82-.14-1.23-.21-1.07-.63-2.06-1.19-2.99-.58-.96-1.27-1.83-2.11-2.57-.27-.24-.55-.45-.82-.67-.24.14-.8.59-1.08.86-.64.62-1.2,1.3-1.68,2.05-.64.99-1.12,2.06-1.37,3.22-.09.4-.15.81-.16,1.22-.01.37,0,.73.02,1.1,0,.17.04.34.06.53m15.31-8.71c-.77-.39-1.56-.74-2.4-1.02.19.33.37.64.53.96.46.9.82,1.85,1.05,2.84.21.86.3,1.74.32,2.62,0,.15-.01.31-.02.46-.02.33-.03.66-.07.99-.05.39-.1.78-.18,1.16-.17.87-.44,1.72-.78,2.54-.48,1.16-1.09,2.24-1.84,3.24-.27.36-.57.71-.86,1.06-.03.04-.07.08-.03.14.03.06.09.05.14.04.02,0,.03,0,.04-.01.91-.22,1.83-.36,2.76-.41.45-.03.91,0,1.37,0,.15,0,.3,0,.46,0,.03-.04.08-.1.12-.16.52-.78,1.05-1.55,1.57-2.33.51-.76,1.03-1.52,1.54-2.28.61-.9,1.21-1.79,1.81-2.69.27-.4.44-.82.51-1.3.08-.62-.03-1.2-.32-1.75-.24-.46-.61-.82-1.04-1.11-.62-.43-1.23-.86-1.84-1.29-.9-.62-1.84-1.19-2.84-1.7m-22.97.41c-.45.27-.91.52-1.34.81-.87.58-1.73,1.19-2.6,1.78-.3.21-.58.44-.79.73-.43.59-.64,1.25-.57,1.99.03.41.14.8.35,1.15.21.35.45.68.67,1.02.78,1.16,1.56,2.32,2.35,3.47.61.91,1.22,1.81,1.83,2.72.12.18.24.35.36.53,1.6-.12,3.17.04,4.74.42.03-.04.05-.08.07-.11-.24-.29-.47-.57-.69-.85-.73-.94-1.35-1.95-1.84-3.03-.4-.87-.71-1.77-.93-2.71-.21-.9-.32-1.82-.33-2.74,0-.6.04-1.21.12-1.81.09-.67.25-1.33.46-1.97.3-.94.71-1.83,1.22-2.67.02-.04.04-.08.07-.15-.07.02-.12.03-.17.05-.71.26-1.4.55-2.08.89-.29.15-.58.3-.88.47m26.62,30.51c.24-.39.44-.8.61-1.22.27-.66.44-1.34.5-2.05.03-.38.02-.76-.01-1.15-.05-.5-.15-.98-.3-1.45-.25-.78-.62-1.5-1.05-2.19-.07-.12-.16-.23-.24-.36-3.37,4.99-6.73,9.96-10.09,14.93.01.02.02.03.03.03.46.26.95.4,1.48.4.49,0,.96-.13,1.39-.37.25-.14.49-.29.73-.44,1.08-.66,2.14-1.35,3.15-2.12.68-.52,1.34-1.07,1.94-1.69.24-.24.47-.48.69-.74.44-.49.83-1.02,1.18-1.6m-30.63-3.92c0,.19,0,.37.02.56.03.29.05.58.11.86.2,1,.62,1.91,1.17,2.77.6.93,1.34,1.74,2.15,2.5.5.47,1.02.9,1.57,1.31,1.21.9,2.47,1.72,3.78,2.47.52.3,1.09.43,1.69.38.34-.03.66-.12.97-.26.09-.04.17-.09.26-.14-.04-.07-.08-.12-.11-.17-.61-.9-1.22-1.8-1.83-2.7-.52-.78-1.05-1.55-1.57-2.33-.52-.77-1.04-1.54-1.56-2.3-.52-.76-1.03-1.53-1.55-2.29-.53-.78-1.06-1.57-1.59-2.35-.6-.9-1.21-1.79-1.81-2.69-.02-.03-.05-.06-.07-.1-.02.02-.03.02-.04.04-.56.81-1.02,1.68-1.3,2.63-.17.58-.27,1.18-.29,1.81m14.29-3.84c-.16.11-.32.21-.48.32-.36.24-.66.55-.89.92-.33.54-.47,1.14-.42,1.76.04.5.21.96.49,1.37.27.39.53.79.8,1.18.61.91,1.22,1.81,1.83,2.72.08.12.16.23.25.36.04-.05.06-.08.08-.12.23-.34.46-.68.69-1.02.7-1.04,1.4-2.09,2.11-3.13.4-.59.56-1.24.49-1.94-.1-.88-.52-1.58-1.25-2.09-.49-.34-.98-.67-1.48-1-.21-.14-.42-.28-.63-.42-.53.36-1.05.71-1.59,1.08Z"/>
</svg>