<?xml version="1.0" encoding="UTF-8"?>
<!--Generator: Apple Native CoreSVG 175.5-->
<!DOCTYPE svg
PUBLIC "-//W3C//DTD SVG 1.1//EN"
       "http://www.w3.org/Graphics/SVG/1.1/DTD/svg11.dtd">
<svg version="1.1" xmlns="http://www.w3.org/2000/svg" xmlns:xlink="http://www.w3.org/1999/xlink" width="33.6141" height="33.6148">
 <g>
  <rect height="33.6148" opacity="0" width="33.6141" x="0" y="0"/>
  <path d="M16.8045 33.6089C26.0211 33.6089 33.6141 26.0101 33.6141 16.8045C33.6141 7.58781 26.0101 0 16.7935 0C7.59293 0 0 7.58781 0 16.8045C0 26.0101 7.60392 33.6089 16.8045 33.6089ZM16.8045 29.9166C9.53205 29.9166 3.7033 24.0769 3.7033 16.8045C3.7033 9.53205 9.52106 3.69231 16.7935 3.69231C24.0659 3.69231 29.9218 9.53205 29.9218 16.8045C29.9218 24.0769 24.0769 29.9166 16.8045 29.9166ZM25.1372 16.7986C25.1372 16.2955 24.957 15.9045 24.5579 15.5207L19.0809 10.1703C18.7792 9.87886 18.4482 9.75069 18.0175 9.75069C17.2186 9.75069 16.6319 10.3476 16.6319 11.1722C16.6319 11.5933 16.818 11.9704 17.0889 12.2319L18.9647 14.0147L20.7197 15.3706L17.4735 15.2058L9.94884 15.2058C9.06639 15.2058 8.42266 15.8847 8.42266 16.7986C8.42266 17.7016 9.06639 18.3804 9.94884 18.3804L17.4735 18.3804L20.7197 18.2266L18.9903 19.5774L17.0889 21.3653C16.8018 21.6107 16.6319 21.9878 16.6319 22.414C16.6319 23.2438 17.2186 23.8516 18.0175 23.8516C18.4482 23.8516 18.7792 23.7074 19.0809 23.4159L24.5579 18.0765C24.9461 17.7147 25.1372 17.3017 25.1372 16.7986Z" fill="#000000" fill-opacity="0.85"/>
 </g>
</svg>
